<?xml version="1.0" encoding="utf-8"?>
<!-- Generator: Adobe Illustrator 19.2.1, SVG Export Plug-In . SVG Version: 6.00 Build 0)  -->
<svg version="1.1" id="Layer_1" xmlns="http://www.w3.org/2000/svg" xmlns:xlink="http://www.w3.org/1999/xlink" x="0px" y="0px"
	 viewBox="0 0 425.2 88.3" style="enable-background:new 0 0 425.2 88.3;" xml:space="preserve">
<style type="text/css">
	.st0{fill:#FFFFFF;}
	.st1{fill:#002D72;}
</style>
<g>
	<g>
		<rect x="63.8" y="79.2" class="st0" width="297.6" height="9.1"/>
		<path class="st1" d="M361.4,79.2h-56.7h-63.8h-56.7h-63.8H63.7H0v2.2v4.7v2.2h63.8h56.7h63.7h56.7h63.8h56.7h63.8v-2.2v-4.7v-2.2
			H361.4z M63.8,86.1v-4.7h56.7v4.7H63.8z M184.2,86.1v-4.7h56.7v4.7H184.2z M361.4,86.1h-56.7v-4.7h56.7V86.1z"/>
	</g>
	<g>
		<path class="st1" d="M144.7,51.8c-7.4-0.8-9.9,0.4-9.9-6.5V8.5c0-6.9,2.6-5.7,9.9-6.5V0.8h-27.8V2c7.4,0.8,9.9-0.4,9.9,6.5v36.7
			c0,6.9-2.6,5.7-9.9,6.5v1.2h27.8V51.8z"/>
		<path class="st1" d="M188.2,2.4h7.9v42.8c0,6.9-2.4,5.7-9.7,6.5v1.2h27.4v-1.2c-7.4-0.8-9.7,0.4-9.7-6.5V2.4h7.9
			c7.1,0,10.5,5.7,13.2,10.6h1l-3.3-12.2h-45.5L174.1,13h1C177.8,8.1,181.1,2.4,188.2,2.4"/>
		<path class="st1" d="M282.5,53.8c7.1,0,12.9-1.3,16-2.2c2.3-0.7,3.8-1,3.8-2.6l2.9-11.6h-1.1c-3,6.6-8.4,14.9-19.6,14.9
			c-16.7,0-24.6-11.5-24.5-26.3c0.1-13.4,7.4-24.5,22.8-24.5c14.2,0,18.2,9.1,18.5,15.8h1.1V5.4c0-1.3-0.5-2.1-3.2-2.9
			c-4-1.2-7.8-2.5-15.7-2.5c-22,0-32.7,15.2-32.7,26.6C250.6,46.5,265.7,53.8,282.5,53.8"/>
		<path class="st1" d="M63.8,53.8c7.1,0,12.9-1.3,16-2.2c2.3-0.7,3.8-1,3.8-2.6l2.9-11.6h-1.1c-3,6.6-8.4,14.9-19.6,14.9
			c-16.7,0-24.6-11.5-24.5-26.3c0.1-13.4,7.4-24.5,22.8-24.5c14.2,0,18.2,9.1,18.5,15.8h1.1V5.4c0-1.3-0.5-2.1-3.2-2.9
			C76.5,1.3,72.7,0,64.8,0c-22,0-32.7,15.2-32.7,26.6C31.9,46.5,47.1,53.8,63.8,53.8"/>
		<path class="st1" d="M365.8,1.6c9.9,1,19.6,10.3,17.8,28c-1,9.9-6.7,24.2-21.9,22.6c-10.5-1.1-19.5-12.3-17.7-30.3
			C345,11.9,352,0.1,365.8,1.6 M359.4,53.5c18,1.8,32.2-9.6,33.8-25.2c1.2-11.4-7.7-26.3-25.3-28.1c-16.9-1.7-31.8,8.6-33.5,24.6
			C332.9,39.2,343.8,51.9,359.4,53.5"/>
	</g>
</g>
</svg>
