<?xml version="1.0" standalone="no"?>
<!DOCTYPE svg PUBLIC "-//W3C//DTD SVG 20010904//EN"
 "http://www.w3.org/TR/2001/REC-SVG-20010904/DTD/svg10.dtd">
<svg version="1.0" xmlns="http://www.w3.org/2000/svg"
 width="152.000000pt" height="152.000000pt" viewBox="0 0 152.000000 152.000000"
 preserveAspectRatio="xMidYMid meet">
<metadata>
Created by potrace 1.11, written by Peter Selinger 2001-2013
</metadata>
<g transform="translate(0.000000,152.000000) scale(0.100000,-0.100000)"
fill="#000000" stroke="none">
<path d="M780 1337 c-3 -3 -23 -7 -45 -10 -252 -33 -482 -222 -539 -442 -32
-126 -7 -307 59 -420 77 -130 233 -225 428 -260 82 -14 318 -15 397 0 57 10
153 35 182 47 30 11 28 8 68 168 12 47 23 93 26 103 3 10 0 17 -8 17 -7 0 -29
-30 -48 -65 -44 -83 -132 -174 -201 -208 -170 -82 -410 -44 -556 87 -95 86
-153 232 -158 397 -9 345 188 561 505 554 132 -3 229 -43 301 -122 39 -44 79
-136 79 -183 0 -20 5 -30 15 -30 13 0 15 21 15 131 0 72 -5 139 -10 149 -12
22 -139 64 -235 79 -63 9 -267 15 -275 8z"/>
</g>
</svg>
